<?xml version="1.0" encoding="UTF-8"?>
<svg id="Layer_1" xmlns="http://www.w3.org/2000/svg" version="1.1" viewBox="0 0 30 30">
  <!-- Generator: Adobe Illustrator 29.8.3, SVG Export Plug-In . SVG Version: 2.1.1 Build 3)  -->
  <defs>
    <style>
      .st0 {
        fill: #101727;
      }
    </style>
  </defs>
  <path class="st0" d="M29.82,20.37h-.03v-1.72c0-.08-.03-.16-.05-.25,0,0,.02,0,.02,0-.01-.05-.04-.1-.05-.16-.01-.04-.02-.08-.04-.12-.06-.14-.13-.27-.24-.38l-.56-.6c-.25-.27-.6-.42-.97-.42h-.69c.02-.06.03-.12.02-.19l-.73-7.49s0-.06-.02-.09l-.26-.88s-.02-.04-.03-.06h0s.23-.51.23-.51c.05-.12-.03-.25-.16-.25h-9.16s-.09.04-.09.09v.37s.01.06.04.07l.52.37h0c-3.34,2.6-4.17,6.77-4.36,9.08-.03.02-.07.04-.09.05-.11.07-.13.71-.14,1.22-.04-.04-.09-.07-.15-.07h-.27c-.14,0-.24.09-.27.19-.01-.11-.1-.19-.21-.19,0,0-.01,0-.02,0v-9.17h.25v-.73h-.25v-1.62h.21v.43h.2s.19-.16.19-.16c.09-.08.15-.2.15-.33v-2.65c0-.08-.06-.14-.14-.14h0v-.13c0-.15-.12-.27-.27-.27h-1.23v-.39h-1.76v10.75h-.33v-.6l-.62-.28h-.15v11.94h.01v.13H0v.15l8.49.23c.3,0,.55-.23.56-.53h.06v-.93h.33v.25h.29l.11.3.07-.03s.05.09.07.13l-.08.04.23.39.06-.04s.06.08.09.12l-.07.05.29.35.06-.05s.07.07.1.1l-.05.06.35.29.05-.07s.07.06.12.09l-.04.06.39.23.04-.08s.08.05.13.07l-.03.07.42.15.03-.08s.09.03.14.04l-.02.08.44.08v-.09c.06,0,.11.01.16.01v.09s.45,0,.45,0v-.09s.09,0,.14-.01v.09s.45-.08.45-.08l-.02-.08s.09-.03.14-.04l.03.08.42-.15-.03-.07s.09-.05.13-.07l.04.08.39-.23-.04-.06s.08-.06.12-.09l.05.07.35-.29-.05-.06s.07-.07.1-.1l.06.05.29-.35-.07-.05s.06-.08.09-.12l.06.04.23-.39-.08-.04s.05-.08.07-.13l.07.03.07-.2h.89l.07.23h.31l-.08-.23h4.71l.33-.16h.69s.04.21.04.21l.07-.02s.03.08.04.12l-.07.02.13.36.06-.03s.04.07.06.11l-.06.03.19.33.05-.03s.05.06.08.1l-.06.04.24.29.05-.05s.06.06.09.09l-.05.05.29.24.04-.06s.06.05.1.08l-.03.05.33.19.03-.06s.07.04.11.06l-.03.06.36.13.02-.07s.08.03.12.04l-.02.07.37.07v-.08s.09,0,.13.01v.07s.37,0,.37,0v-.07s.08,0,.12-.01v.08s.38-.07.38-.07l-.02-.07s.08-.03.12-.04l.02.07.36-.13-.03-.06s.07-.04.11-.06l.03.06.33-.19-.03-.05s.06-.05.1-.08l.04.06.29-.24-.05-.05s.06-.06.09-.09l.05.05.24-.29-.06-.04s.05-.06.08-.1l.05.03.19-.33-.06-.03s.04-.07.06-.11l.06.03.13-.36-.07-.02s.03-.08.04-.12l.07.02.07-.37h-.08s0-.09.01-.13h.07s0-.37,0-.37h-.07s0-.08-.01-.12h.08s-.07-.38-.07-.38l-.07.02s-.03-.08-.04-.12l.07-.02-.09-.25.53-.15h.56c.1,0,.18-.08.18-.18v-1.89c0-.1-.08-.18-.18-.18ZM18.72,8.41h6.55l.41,8.43c0,.17-.07.32-.21.42h-1.67v-.07c0-.12-.09-.21-.21-.21h-.1c.16-.05.2-.15.19-.25-.01-.14-.16-.31-.34-.45v-.14s.11-.04.12-.17c.05-.52.18-1.65.21-1.93.02-.28.07-1.2-.31-1.23s-1.02.95-1.17,2.06c-.07.49.09,1.05.22,1.23-.61-.09-2.23-.25-2.96.32-.23.17-.09.54.07.58.05.01.37.02.8.02-.09.02-.17.09-.17.19v.17c-.62.16-1.44.57-1.44,1.64,0,.12,0,.21,0,.28,0,.01,0,.03,0,.04,0,.06.02.1.05.11,0,0,0,0,0,0h.02s.01,0,.02,0h.04v.22h0v.49h-1.51v-1.57c0-.13-.09-.23-.21-.28.01-.02.03-.04.03-.07v-.13c0-.07-.06-.12-.12-.13-.01-.07-.05-.11-.11-.14l.4-2.11c.08-.01.14-.06.16-.14.02-.1-.05-.21-.15-.23s-.21.05-.23.15c-.02.08.03.15.1.19l-.4,2.13c-.07.02-.12.07-.14.15-.07,0-.12.06-.12.13v.13s.01.05.03.07c-.11.05-.21.15-.21.28v.02l-.15-.06-.09-2.23,1-1.36c.05,0,.1-.02.13-.06l.1-.13s.03-.1.02-.14h0s-.01-.01-.01-.01c-.01-.03-.02-.06-.05-.08l-.16-.12.08-.11.17.12.08-.12h0s.39-.24.39-.24l.53.38s.12.02.15-.02.02-.12-.02-.15l-1.61-1.17v-.08s.15-.13.15-.13c.04.02.09.01.12-.03.03-.05.02-.11-.02-.15l-.12-.08s-.11-.02-.15.02c-.03.04-.02.1.02.13l-.07.17-.07.03-.08-.06s-.12-.02-.15.02-.02.12.02.15l.53.38-.1.44h0s-.08.11-.08.11l.26.19-.09-.07-.08.11-.16-.12s-.05-.01-.08-.02l-.03-.02h0s-.09.04-.12.08l-.1.13s-.04.09-.03.13l-1.05,1.43s-.04.07-.05.11h0s-.72,1.96-.72,1.96l-.42-.16c.06-1.87.59-6.86,4.52-9.4ZM17.79,8.37l.22.23c-3.21,2.49-3.97,6.59-4.14,8.79-.07-.1-.17-.16-.29-.19.15-2.13.89-6.29,4.2-8.83ZM9.38,20.65v-.61s-.03-.06-.06-.06h-.06s-.06.03-.06.06v.61h-.07v-3.17h.33v3.17h-.07Z"/>
</svg>