<?xml version="1.0" encoding="UTF-8"?>
<svg id="Layer_1" xmlns="http://www.w3.org/2000/svg" version="1.1" viewBox="0 0 30 30">
  <!-- Generator: Adobe Illustrator 29.8.3, SVG Export Plug-In . SVG Version: 2.1.1 Build 3)  -->
  <path d="M28.48,26.23c0-.18-.14-.32-.32-.32h-2.8c-.11,0-.21.05-.26.14h-.62s0-.02,0-.02c0-.1-.08-.19-.19-.19h-.53s-.08.02-.12.05v-.38s-.03,0-.03,0v-.45s-.01-.03-.01-.08c.11-.07.18-.19.18-.33,0-.15-.09-.28-.21-.34-.03-.61-.1-1.51-.24-2.39h0s.31-.31.31-.31c.09-.09.15-.22.15-.35l.08-1.92c.01-.36-.27-.66-.63-.66h0s0-.43,0-.43h0s0-.47,0-.47h0v-.64c.07-.11.13-.23.13-.37,0-.18-.07-.33-.18-.46l.26-.51h0s.25-.5.25-.5c.17-.05.29-.19.29-.37,0,0,0,0,0-.01,0,0,0-.01.01-.02.19,0,.37-.1.46-.27h0c.08-.14.07-.31.01-.45l.49-.76c.05-.1.03-.22-.06-.27l-.58-.34c-.09-.05-.2,0-.25.1l-.35.83c-.16.02-.31.11-.4.26-.1.19-.07.42.05.57,0,0,0,.01,0,.02-.1.07-.17.18-.17.32,0,.04.01.09.03.13l-.52,1.03s0,0-.01,0c-.38,0-.68.3-.68.68,0,.17.07.31.16.43v.58h0v.9s-.2,0-.2,0c-.72-.56-1.64-.78-2.43-.87h0l-2.77-.73c-.29-.08-.58.14-.58.45v.49s0,.5,0,.5v1.99s-.04,0-.04,0v-.36s-.17,0-.17,0l.03-10h.19s0-.73,0-.73h-.19s0-1.41,0-1.41h.93s0-.37,0-.37h-.37s.15,0,.15,0v-2.53s.23,0,.23,0v-.36s-1.07,0-1.07,0v-1.26s.62,0,.62,0v-.41s-.14,0-.14,0v-.98s.14,0,.14,0v-.41s-1.5,0-1.5,0v-.09s-.31,0-.31,0v.05s-.58,0-.58,0v-.06s-.31,0-.31,0v3.17s-.22,0-.22,0v.31s-.02,0-.02,0l-.03,10.41h-.79s.02-5.81.02-5.81h-.98s-.02,6.74-.02,6.74c0,.08.05.15.11.19h0s-.05.01-.05.01v3.46s.09,0,.09,0v.15c0,.13-.1.23-.23.23,0,0-7.81-.03-10.1-.03-.15,0-.13.21,0,.22,2.45.11,10.42.48,10.42.48.3.01.56-.23.56-.53v-.51s.1,0,.1,0v-.41s.85,0,.85,0l-.02,6.55c-.06,0-.1.05-.1.11v.82s-6.97-.02-6.97-.02h-.43c-.11-.07-.22-.12-.36-.12s-.25.05-.36.11h-1.49c-.11-.07-.22-.12-.36-.12-.13,0-.25.05-.36.11h-.45s-.85,0-.85,0c-.08,0-.15.07-.15.15v.26s.02.08.04.1c.03.03.06.04.1.04h0s0,0,0,0h.85s0,.24,0,.24c0,.09.07.17.16.17h.1c.12.17.31.29.54.29s.42-.12.54-.29h1.12c.12.18.31.29.54.3s.42-.12.54-.29h.08c.09,0,.17-.07.17-.16v-.24s6.97.02,6.97.02v.05c0,.07.05.13.12.13.62,0,3.43.04,5.25.04.68,0,1.27,0,1.49-.02.02,0,.06,0,.07,0,.17-.02.26-.19.36-.4h.37c-.03.08-.05.15-.05.24,0,.39.32.71.71.72.39,0,.71-.32.72-.71,0-.08-.02-.16-.05-.23h.23c.14.22.25.4.34.4,0,0,0,0,0,0,0,0,0,0,0,0,.58,0,.68-.57.68-.57l-.02-.7s.06.04.1.04h.53c.1,0,.19-.08.19-.18v-.06s.62,0,.62,0c.04.07.11.12.19.12h1.46s1.41,0,1.41,0h.07c.14,0,.25-.11.25-.25h-.01s.01-.05.01-.07ZM12.64,16.59s.04,0,.06-.02v.03s-.06,0-.06,0h0ZM15.41,20.13h-.18s0,.36,0,.36h.18s-.27,0-.27,0v-.93c0-.06-.02-.11-.05-.15l.03-9.27h.32s-.03,10-.03,10ZM15.44,9.41h-.32s0-1.41,0-1.41h.32s0,1.41,0,1.41ZM16.67,5.1h-.2s0,2.53,0,2.53h-.41s0-.18,0-.18h.07s0-.41,0-.41h-.07s-.59,0-.59,0h-.04s0,.41,0,.41h.04s0,.18,0,.18h-.32s0-2.53,0-2.53h.49s0,1.93,0,1.93h.28s0-1.92,0-1.92h.76ZM15.63,3.48v1.26s-.6,0-.6,0v-1.26s.74,0,.74,0h-.14ZM16.07,2.09h-1.03s1.03,0,1.03,0ZM13.98,4.74h0s0,0,0,0Z"/>
</svg>