<?xml version="1.0" encoding="UTF-8"?>
<svg xmlns="http://www.w3.org/2000/svg" version="1.1" viewBox="0 0 500 500">
  <!-- Generator: Adobe Illustrator 29.8.3, SVG Export Plug-In . SVG Version: 2.1.1 Build 3)  -->
  <defs>
    <style>
      .st0 {
        fill: blue;
        stroke-width: .75px;
      }

      .st0, .st1 {
        stroke: #284356;
        stroke-linecap: round;
        stroke-linejoin: round;
      }

      .st2 {
        mix-blend-mode: multiply;
        opacity: .45;
      }

      .st1 {
        fill: #737987;
        stroke-width: 3px;
      }

      .st3 {
        fill: #fc5a00;
      }

      .st4 {
        isolation: isolate;
      }

      .st5 {
        fill: #284356;
      }

      .st6 {
        fill: #376dcc;
      }
    </style>
  </defs>
  <g class="st4">
    <g id="Layer_1">
      <g>
        <g>
          <g>
            <rect class="st3" x="17.09" y="353.17" width="470.67" height="10.36" rx="1.03" ry="1.03"/>
            <path class="st5" d="M486.73,354.2v8.3H18.11v-8.3h468.61M486.73,352.15H18.11c-1.14,0-2.06.92-2.06,2.06v8.3c0,1.14.92,2.06,2.06,2.06h468.61c1.14,0,2.06-.92,2.06-2.06v-8.3c0-1.14-.92-2.06-2.06-2.06h0Z"/>
          </g>
          <g>
            <rect class="st3" x="17.09" y="241.6" width="470.67" height="10.35" rx="1.03" ry="1.03"/>
            <path class="st5" d="M486.73,242.63v8.3H18.11v-8.3h468.61M486.73,240.57H18.11c-1.14,0-2.06.92-2.06,2.06v8.3c0,1.14.92,2.06,2.06,2.06h468.61c1.14,0,2.06-.92,2.06-2.06v-8.3c0-1.14-.92-2.06-2.06-2.06h0Z"/>
          </g>
          <g>
            <rect class="st3" x="17.09" y="130.03" width="470.67" height="10.36" rx="1.03" ry="1.03"/>
            <path class="st5" d="M486.73,131.05v8.3H18.11v-8.3h468.61M486.73,129H18.11c-1.14,0-2.06.92-2.06,2.06v8.3c0,1.14.92,2.06,2.06,2.06h468.61c1.14,0,2.06-.92,2.06-2.06v-8.3c0-1.14-.92-2.06-2.06-2.06h0Z"/>
          </g>
        </g>
        <g>
          <g>
            <path class="st5" d="M478.76,96.64v367.87h-15.03V96.64h15.03M478.76,92.52h-15.03c-2.27,0-4.11,1.84-4.11,4.11v367.87c0,2.27,1.84,4.11,4.11,4.11h15.03c2.27,0,4.11-1.84,4.11-4.11V96.64c0-2.27-1.84-4.11-4.11-4.11h0Z"/>
            <path class="st0" d="M463.73,96.64v367.87h15.03V96.64h-15.03Z"/>
          </g>
          <g>
            <path class="st5" d="M41.11,96.64v367.87h-15.02V96.64h15.02M41.11,92.52h-15.02c-2.27,0-4.11,1.84-4.11,4.11v367.87c0,2.27,1.84,4.11,4.11,4.11h15.02c2.27,0,4.11-1.84,4.11-4.11V96.64c0-2.27-1.84-4.11-4.11-4.11h0Z"/>
            <path class="st0" d="M26.08,96.64v367.87h15.02V96.64h-15.02Z"/>
          </g>
        </g>
        <g class="st2">
          <rect class="st6" x="45.25" y="131.08" width="11.87" height="8.24"/>
        </g>
        <g class="st2">
          <rect class="st6" x="45.23" y="242.66" width="11.87" height="8.24"/>
        </g>
        <g class="st2">
          <rect class="st6" x="45.23" y="354.22" width="11.87" height="8.24"/>
        </g>
      </g>
      <line class="st1" x1="500" y1="467.07" y2="467.07"/>
    </g>
  </g>
</svg>