<?xml version="1.0" encoding="UTF-8"?>
<svg xmlns="http://www.w3.org/2000/svg" version="1.1" viewBox="0 0 500 500">
  <!-- Generator: Adobe Illustrator 29.8.3, SVG Export Plug-In . SVG Version: 2.1.1 Build 3)  -->
  <defs>
    <style>
      .st0 {
        fill: blue;
        stroke-width: .75px;
      }

      .st0, .st1, .st2, .st3, .st4 {
        stroke: #284356;
        stroke-linecap: round;
        stroke-linejoin: round;
      }

      .st5 {
        opacity: .45;
      }

      .st5, .st6, .st7 {
        mix-blend-mode: multiply;
      }

      .st8 {
        fill: #11303f;
      }

      .st1 {
        fill: #737987;
        stroke-width: 3px;
      }

      .st2 {
        fill: #d6936e;
      }

      .st2, .st3, .st4 {
        stroke-width: 1.5px;
      }

      .st9 {
        fill: #fc5a00;
      }

      .st10 {
        isolation: isolate;
      }

      .st11, .st6 {
        fill: #284356;
      }

      .st6, .st7 {
        opacity: .3;
      }

      .st3 {
        fill: #e29054;
      }

      .st12 {
        fill: #376dcc;
      }

      .st13 {
        fill: #e57a23;
      }

      .st4 {
        fill: #ffb375;
      }
    </style>
  </defs>
  <g class="st10">
    <g id="Layer_1">
      <g>
        <rect class="st2" x="377.38" y="282.06" width="70.48" height="70.48" rx="1.02" ry="1.02"/>
        <g>
          <path class="st8" d="M423.59,341.6c0-2.3-1.87-4.16-4.16-4.16s-4.16,1.86-4.16,4.16h3.81v4.67c0,.38-.31.69-.69.69s-.68-.31-.68-.69v-.15c0-.2-.16-.36-.36-.36s-.36.16-.36.36v.15c0,.77.63,1.4,1.4,1.4s1.4-.63,1.4-1.4v-4.67h3.81Z"/>
          <path class="st8" d="M431.26,340.41v-2.97h-5.95v2.97c0,1.52,1.14,2.77,2.62,2.95v3.59h-1.63c-.2,0-.36.16-.36.36s.16.36.36.36h3.98c.2,0,.36-.16.36-.36s-.16-.36-.36-.36h-1.63v-3.59c1.47-.18,2.62-1.43,2.62-2.95Z"/>
          <path class="st8" d="M441.85,339.15h1.03l-1.97-1.72-1.97,1.72h1.01v7.86h-3.09v-7.86h1.03l-1.97-1.72-1.97,1.72h1.01v7.86h-.65c-.2,0-.36.16-.36.36s.16.36.36.36h8.23c.2,0,.36-.16.36-.36s-.16-.36-.36-.36h-.67v-7.86Z"/>
        </g>
      </g>
      <g>
        <path class="st3" d="M288.71,289h61.39c.5,0,.91.41.91.91v61.38c0,.5-.41.91-.91.91h-61.38c-.5,0-.91-.41-.91-.91v-61.38c0-.5.41-.91.91-.91Z"/>
        <g>
          <path class="st8" d="M329.25,342.39c0-2.06-1.68-3.73-3.74-3.73s-3.74,1.67-3.74,3.73h3.42v4.19c0,.34-.28.61-.62.61s-.61-.27-.61-.61v-.13c0-.18-.14-.32-.32-.32s-.32.14-.32.32v.13c0,.69.56,1.26,1.25,1.26s1.25-.56,1.25-1.26v-4.19h3.42Z"/>
          <path class="st8" d="M336.12,341.33v-2.67h-5.33v2.67c0,1.36,1.03,2.49,2.35,2.65v3.22h-1.46c-.18,0-.32.14-.32.32s.14.32.32.32h3.57c.18,0,.32-.14.32-.32s-.14-.32-.32-.32h-1.46v-3.22c1.32-.16,2.35-1.28,2.35-2.65Z"/>
          <path class="st8" d="M345.62,340.2h.93l-1.77-1.54-1.77,1.54h.91v7.04h-2.77v-7.04h.92l-1.77-1.54-1.77,1.54h.91v7.04h-.59c-.18,0-.32.14-.32.32s.14.32.32.32h7.38c.18,0,.32-.14.32-.32s-.14-.32-.32-.32h-.61v-7.04Z"/>
        </g>
      </g>
      <polygon class="st6" points="392.99 355.92 408.69 355.92 408.69 306.16 394.98 296.23 392.99 355.92"/>
      <g>
        <rect class="st4" x="339.44" y="297.06" width="55.48" height="55.48" rx=".8" ry=".8"/>
        <g>
          <path class="st8" d="M375.82,343.93c0-1.81-1.47-3.28-3.28-3.28s-3.28,1.46-3.28,3.28h3v3.67c0,.3-.24.54-.54.54s-.54-.24-.54-.54v-.12c0-.16-.13-.28-.28-.28s-.28.13-.28.28v.12c0,.61.49,1.1,1.1,1.1s1.1-.49,1.1-1.1v-3.67h3Z"/>
          <path class="st8" d="M381.85,342.99v-2.34h-4.68v2.34c0,1.2.9,2.18,2.06,2.32v2.83h-1.29c-.16,0-.28.13-.28.28s.13.28.28.28h3.13c.16,0,.28-.13.28-.28s-.13-.28-.28-.28h-1.29v-2.83c1.16-.14,2.06-1.12,2.06-2.32Z"/>
          <path class="st8" d="M390.19,342h.81l-1.55-1.35-1.55,1.35h.8v6.19h-2.43v-6.19h.81l-1.55-1.35-1.56,1.35h.8v6.19h-.51c-.16,0-.28.13-.28.28s.13.28.28.28h6.48c.15,0,.28-.13.28-.28s-.13-.28-.28-.28h-.53v-6.19Z"/>
        </g>
      </g>
      <g>
        <path class="st2" d="M192.48,306.4h75.91c.51,0,.93.42.93.93v44.37c0,.51-.42.93-.93.93h-75.91c-.51,0-.92-.41-.92-.92v-44.38c0-.51.41-.92.92-.92Z"/>
        <g>
          <path class="st8" d="M247.26,342.68c0-2.09-1.69-3.78-3.78-3.78s-3.78,1.69-3.78,3.78h3.46v4.24c0,.35-.28.62-.62.62s-.62-.28-.62-.62v-.13c0-.18-.15-.32-.32-.32s-.33.14-.33.32v.13c0,.7.57,1.27,1.27,1.27s1.27-.57,1.27-1.27v-4.24h3.46Z"/>
          <path class="st8" d="M254.23,341.6v-2.7h-5.4v2.7c0,1.38,1.04,2.52,2.38,2.68v3.26h-1.48c-.18,0-.33.14-.33.32s.15.32.33.32h3.62c.18,0,.32-.14.32-.32s-.14-.32-.32-.32h-1.49v-3.26c1.34-.16,2.38-1.3,2.38-2.68Z"/>
          <path class="st8" d="M263.85,340.46h.94l-1.79-1.56-1.79,1.56h.92v7.14h-2.81v-7.14h.94l-1.79-1.56-1.79,1.56h.92v7.14h-.59c-.18,0-.33.14-.33.32s.14.32.33.32h7.48c.18,0,.32-.14.32-.32s-.14-.32-.32-.32h-.61v-7.14Z"/>
        </g>
      </g>
      <g>
        <path class="st2" d="M69.43,283.55h67.28c.55,0,1,.45,1,1v67.29c0,.55-.45,1-1,1h-67.29c-.55,0-1-.45-1-1v-67.29c0-.55.45-1,1-1Z"/>
        <g>
          <path class="st8" d="M113.86,342.08c0-2.26-1.83-4.09-4.09-4.09s-4.09,1.83-4.09,4.09h3.74v4.59c0,.37-.3.67-.67.67s-.67-.3-.67-.67v-.14c0-.2-.16-.35-.35-.35s-.35.16-.35.35v.14c0,.76.62,1.38,1.37,1.38s1.38-.62,1.38-1.38v-4.59h3.74Z"/>
          <path class="st8" d="M121.4,340.91v-2.92h-5.85v2.92c0,1.49,1.12,2.73,2.57,2.9v3.53h-1.61c-.2,0-.35.16-.35.35s.16.35.35.35h3.91c.19,0,.35-.16.35-.35s-.16-.35-.35-.35h-1.61v-3.53c1.45-.17,2.57-1.41,2.57-2.9Z"/>
          <path class="st8" d="M131.81,339.67h1.01l-1.94-1.69-1.94,1.69h.99v7.72h-3.04v-7.72h1.01l-1.94-1.69-1.94,1.69h.99v7.72h-.64c-.19,0-.35.16-.35.35s.16.35.35.35h8.09c.2,0,.35-.16.35-.35s-.16-.35-.35-.35h-.66v-7.72Z"/>
        </g>
      </g>
      <g>
        <path class="st3" d="M96.69,405.53h58.3c.48,0,.86.39.86.86v58.3c0,.48-.39.87-.87.87h-58.3c-.48,0-.86-.39-.86-.86v-58.3c0-.48.39-.87.87-.87Z"/>
        <g>
          <path class="st8" d="M146.54,444.9c-1.96,0-3.55-1.59-3.55-3.55s1.59-3.55,3.55-3.55v3.25h3.98c.32,0,.58-.26.58-.58s-.26-.58-.58-.58h-.13c-.17,0-.31-.14-.31-.3s.14-.31.31-.31h.13c.66,0,1.19.53,1.19,1.19s-.53,1.19-1.19,1.19h-3.98v3.25Z"/>
          <path class="st8" d="M145.52,451.43h-2.53v-5.07h2.53c1.3,0,2.36.97,2.51,2.23h3.06v-1.39c0-.17.14-.31.3-.31s.31.14.31.31v3.39c0,.17-.14.31-.31.31s-.3-.14-.3-.31v-1.39h-3.06c-.15,1.26-1.22,2.23-2.51,2.23Z"/>
          <path class="st8" d="M144.46,460.45v.88l-1.46-1.68,1.46-1.68v.86h6.69v-2.63h-6.69v.88l-1.46-1.68,1.46-1.68v.86h6.69v-.55c0-.17.14-.31.3-.31s.31.14.31.31v7.01c0,.17-.14.31-.31.31s-.3-.14-.3-.31v-.57h-6.69Z"/>
        </g>
      </g>
      <g>
        <rect class="st2" x="166.49" y="395.09" width="70.48" height="70.47" rx="1.02" ry="1.02"/>
        <g>
          <path class="st8" d="M190.75,454.62c0-2.3,1.87-4.16,4.16-4.16s4.16,1.86,4.16,4.16h-3.81v4.67c0,.38.31.69.69.69s.68-.31.68-.69v-.15c0-.2.16-.36.36-.36s.36.16.36.36v.15c0,.77-.63,1.4-1.4,1.4s-1.4-.63-1.4-1.4v-4.67h-3.81Z"/>
          <path class="st8" d="M183.08,453.43v-2.97h5.95v2.97c0,1.52-1.14,2.77-2.62,2.95v3.59h1.63c.2,0,.36.16.36.36s-.16.36-.36.36h-3.98c-.2,0-.36-.16-.36-.36s.16-.36.36-.36h1.63v-3.59c-1.47-.18-2.62-1.43-2.62-2.95Z"/>
          <path class="st8" d="M172.49,452.18h-1.03l1.97-1.72,1.97,1.72h-1.01v7.86h3.09v-7.86h-1.03l1.97-1.72,1.97,1.72h-1.01v7.86h.65c.2,0,.36.16.36.36s-.16.36-.36.36h-8.23c-.2,0-.36-.16-.36-.36s.16-.36.36-.36h.67v-7.86Z"/>
        </g>
      </g>
      <g>
        <rect class="st4" x="304.84" y="377.53" width="60.5" height="60.5" rx=".87" ry=".87"/>
        <g>
          <path class="st8" d="M344.51,428.64c0-1.97-1.6-3.57-3.57-3.57s-3.57,1.6-3.57,3.57h3.27v4.01c0,.32-.27.59-.59.59s-.59-.26-.59-.59v-.13c0-.17-.14-.31-.31-.31s-.31.14-.31.31v.13c0,.66.54,1.2,1.2,1.2s1.2-.54,1.2-1.2v-4.01h3.27Z"/>
          <path class="st8" d="M351.09,427.62v-2.55h-5.1v2.55c0,1.3.98,2.38,2.24,2.53v3.08h-1.4c-.17,0-.31.14-.31.31s.14.31.31.31h3.42c.17,0,.31-.14.31-.31s-.14-.31-.31-.31h-1.4v-3.08c1.26-.15,2.24-1.23,2.24-2.53Z"/>
          <path class="st8" d="M360.18,426.54h.89l-1.69-1.48-1.69,1.48h.87v6.74h-2.65v-6.74h.88l-1.69-1.48-1.69,1.48h.87v6.74h-.56c-.17,0-.31.14-.31.31s.14.31.31.31h7.06c.17,0,.31-.14.31-.31s-.14-.31-.31-.31h-.58v-6.74Z"/>
        </g>
      </g>
      <g>
        <g>
          <g>
            <rect class="st13" x="292.39" y="443.36" width="13.93" height="13.93" rx="1.03" ry="1.03"/>
            <path class="st11" d="M305.29,444.38v11.87h-11.87v-11.87h11.87M305.29,442.33h-11.87c-1.14,0-2.06.92-2.06,2.06v11.87c0,1.14.92,2.06,2.06,2.06h11.87c1.14,0,2.06-.92,2.06-2.06v-11.87c0-1.14-.92-2.06-2.06-2.06h0Z"/>
          </g>
          <g>
            <rect class="st13" x="351.49" y="443.36" width="13.93" height="13.93" rx="1.03" ry="1.03"/>
            <path class="st11" d="M364.39,444.38v11.87h-11.87v-11.87h11.87M364.39,442.33h-11.87c-1.14,0-2.06.92-2.06,2.06v11.87c0,1.14.92,2.06,2.06,2.06h11.87c1.14,0,2.06-.92,2.06-2.06v-11.87c0-1.14-.92-2.06-2.06-2.06h0Z"/>
          </g>
          <g class="st7">
            <rect class="st12" x="352.52" y="446.5" width="11.87" height="3.31"/>
          </g>
          <g>
            <rect class="st13" x="410.6" y="443.36" width="13.93" height="13.93" rx="1.03" ry="1.03"/>
            <path class="st11" d="M423.49,444.38v11.87h-11.87v-11.87h11.87M423.49,442.33h-11.87c-1.14,0-2.06.92-2.06,2.06v11.87c0,1.14.92,2.06,2.06,2.06h11.87c1.14,0,2.06-.92,2.06-2.06v-11.87c0-1.14-.92-2.06-2.06-2.06h0Z"/>
          </g>
          <g class="st7">
            <rect class="st12" x="411.63" y="446.5" width="11.87" height="3.31"/>
          </g>
          <g class="st7">
            <rect class="st12" x="293.41" y="446.5" width="11.87" height="3.31"/>
          </g>
        </g>
        <g>
          <rect class="st13" x="277.6" y="438.04" width="161.72" height="7.38" rx="1.03" ry="1.03"/>
          <path class="st11" d="M438.29,439.06v5.32h-159.66v-5.32h159.66M438.29,437.01h-159.66c-1.14,0-2.06.92-2.06,2.06v5.32c0,1.14.92,2.06,2.06,2.06h159.66c1.14,0,2.06-.92,2.06-2.06v-5.32c0-1.14-.92-2.06-2.06-2.06h0Z"/>
        </g>
        <g>
          <rect class="st13" x="277.6" y="458.03" width="161.72" height="7.38" rx="1.03" ry="1.03"/>
          <path class="st11" d="M438.29,459.06v5.32h-159.66v-5.32h159.66M438.29,457.01h-159.66c-1.14,0-2.06.92-2.06,2.06v5.32c0,1.14.92,2.06,2.06,2.06h159.66c1.14,0,2.06-.92,2.06-2.06v-5.32c0-1.14-.92-2.06-2.06-2.06h0Z"/>
        </g>
      </g>
      <g>
        <g>
          <g>
            <rect class="st9" x="17.09" y="353.17" width="470.67" height="10.36" rx="1.03" ry="1.03"/>
            <path class="st11" d="M486.73,354.2v8.3H18.11v-8.3h468.61M486.73,352.15H18.11c-1.14,0-2.06.92-2.06,2.06v8.3c0,1.14.92,2.06,2.06,2.06h468.61c1.14,0,2.06-.92,2.06-2.06v-8.3c0-1.14-.92-2.06-2.06-2.06h0Z"/>
          </g>
          <g>
            <rect class="st9" x="17.09" y="241.6" width="470.67" height="10.35" rx="1.03" ry="1.03"/>
            <path class="st11" d="M486.73,242.63v8.3H18.11v-8.3h468.61M486.73,240.57H18.11c-1.14,0-2.06.92-2.06,2.06v8.3c0,1.14.92,2.06,2.06,2.06h468.61c1.14,0,2.06-.92,2.06-2.06v-8.3c0-1.14-.92-2.06-2.06-2.06h0Z"/>
          </g>
          <g>
            <rect class="st9" x="17.09" y="130.03" width="470.67" height="10.36" rx="1.03" ry="1.03"/>
            <path class="st11" d="M486.73,131.05v8.3H18.11v-8.3h468.61M486.73,129H18.11c-1.14,0-2.06.92-2.06,2.06v8.3c0,1.14.92,2.06,2.06,2.06h468.61c1.14,0,2.06-.92,2.06-2.06v-8.3c0-1.14-.92-2.06-2.06-2.06h0Z"/>
          </g>
        </g>
        <g>
          <g>
            <path class="st11" d="M478.76,96.64v367.87h-15.03V96.64h15.03M478.76,92.52h-15.03c-2.27,0-4.11,1.84-4.11,4.11v367.87c0,2.27,1.84,4.11,4.11,4.11h15.03c2.27,0,4.11-1.84,4.11-4.11V96.64c0-2.27-1.84-4.11-4.11-4.11h0Z"/>
            <path class="st0" d="M463.73,96.64v367.87h15.03V96.64h-15.03Z"/>
          </g>
          <g>
            <path class="st11" d="M41.11,96.64v367.87h-15.02V96.64h15.02M41.11,92.52h-15.02c-2.27,0-4.11,1.84-4.11,4.11v367.87c0,2.27,1.84,4.11,4.11,4.11h15.02c2.27,0,4.11-1.84,4.11-4.11V96.64c0-2.27-1.84-4.11-4.11-4.11h0Z"/>
            <path class="st0" d="M26.08,96.64v367.87h15.02V96.64h-15.02Z"/>
          </g>
        </g>
        <g class="st5">
          <rect class="st12" x="45.25" y="131.08" width="11.87" height="8.24"/>
        </g>
        <g class="st5">
          <rect class="st12" x="45.23" y="242.66" width="11.87" height="8.24"/>
        </g>
        <g class="st5">
          <rect class="st12" x="45.23" y="354.22" width="11.87" height="8.24"/>
        </g>
      </g>
      <line class="st1" x1="500" y1="467.07" y2="467.07"/>
    </g>
  </g>
</svg>