<?xml version="1.0" encoding="UTF-8"?>
<svg xmlns="http://www.w3.org/2000/svg" version="1.1" viewBox="0 0 500 500">
  <!-- Generator: Adobe Illustrator 29.8.3, SVG Export Plug-In . SVG Version: 2.1.1 Build 3)  -->
  <defs>
    <style>
      .st0 {
        fill: blue;
        stroke-width: .75px;
      }

      .st0, .st1, .st2, .st3, .st4 {
        stroke: #284356;
        stroke-linecap: round;
        stroke-linejoin: round;
      }

      .st5 {
        opacity: .45;
      }

      .st5, .st6, .st7 {
        mix-blend-mode: multiply;
      }

      .st8 {
        fill: #11303f;
      }

      .st1 {
        fill: #737987;
        stroke-width: 3px;
      }

      .st2 {
        fill: #d6936e;
      }

      .st2, .st3, .st4 {
        stroke-width: 1.5px;
      }

      .st9 {
        fill: #fc5a00;
      }

      .st10 {
        isolation: isolate;
      }

      .st11, .st6 {
        fill: #284356;
      }

      .st6, .st7 {
        opacity: .3;
      }

      .st3 {
        fill: #e29054;
      }

      .st12 {
        fill: #376dcc;
      }

      .st13 {
        fill: #e57a23;
      }

      .st4 {
        fill: #ffb375;
      }
    </style>
  </defs>
  <g class="st10">
    <g id="Layer_1">
      <g>
        <rect class="st4" x="380.59" y="71.91" width="58.08" height="58.08" rx=".84" ry=".84"/>
        <g>
          <path class="st8" d="M418.68,120.98c0-1.9-1.54-3.43-3.43-3.43-1.9,0-3.43,1.53-3.43,3.43h3.14v3.84c0,.31-.25.56-.56.56s-.56-.25-.56-.56v-.12c0-.16-.13-.29-.29-.29s-.3.13-.3.29v.12c0,.64.52,1.15,1.15,1.15s1.15-.52,1.15-1.15v-3.84h3.14Z"/>
          <path class="st8" d="M425,119.99v-2.45h-4.9v2.45c0,1.25.94,2.29,2.16,2.43v2.96h-1.35c-.16,0-.3.13-.3.29s.13.29.3.29h3.28c.16,0,.3-.13.3-.29s-.13-.29-.3-.29h-1.34v-2.96c1.21-.15,2.16-1.18,2.16-2.43Z"/>
          <path class="st8" d="M433.73,118.96h.85l-1.63-1.41-1.63,1.41h.83v6.47h-2.55v-6.47h.85l-1.63-1.41-1.63,1.41h.84v6.47h-.54c-.17,0-.3.13-.3.29s.13.29.3.29h6.78c.16,0,.29-.13.29-.29s-.13-.29-.29-.29h-.55v-6.47Z"/>
        </g>
      </g>
      <g>
        <rect class="st2" x="377.38" y="282.06" width="70.48" height="70.48" rx="1.02" ry="1.02"/>
        <g>
          <path class="st8" d="M423.59,341.6c0-2.3-1.87-4.16-4.16-4.16s-4.16,1.86-4.16,4.16h3.81v4.67c0,.38-.31.69-.69.69s-.68-.31-.68-.69v-.15c0-.2-.16-.36-.36-.36s-.36.16-.36.36v.15c0,.77.63,1.4,1.4,1.4s1.4-.63,1.4-1.4v-4.67h3.81Z"/>
          <path class="st8" d="M431.26,340.41v-2.97h-5.95v2.97c0,1.52,1.14,2.77,2.62,2.95v3.59h-1.63c-.2,0-.36.16-.36.36s.16.36.36.36h3.98c.2,0,.36-.16.36-.36s-.16-.36-.36-.36h-1.63v-3.59c1.47-.18,2.62-1.43,2.62-2.95Z"/>
          <path class="st8" d="M441.85,339.15h1.03l-1.97-1.72-1.97,1.72h1.01v7.86h-3.09v-7.86h1.03l-1.97-1.72-1.97,1.72h1.01v7.86h-.65c-.2,0-.36.16-.36.36s.16.36.36.36h8.23c.2,0,.36-.16.36-.36s-.16-.36-.36-.36h-.67v-7.86Z"/>
        </g>
      </g>
      <g>
        <path class="st3" d="M288.71,289h61.39c.5,0,.91.41.91.91v61.38c0,.5-.41.91-.91.91h-61.38c-.5,0-.91-.41-.91-.91v-61.38c0-.5.41-.91.91-.91Z"/>
        <g>
          <path class="st8" d="M329.25,342.39c0-2.06-1.68-3.73-3.74-3.73s-3.74,1.67-3.74,3.73h3.42v4.19c0,.34-.28.61-.62.61s-.61-.27-.61-.61v-.13c0-.18-.14-.32-.32-.32s-.32.14-.32.32v.13c0,.69.56,1.26,1.25,1.26s1.25-.56,1.25-1.26v-4.19h3.42Z"/>
          <path class="st8" d="M336.12,341.33v-2.67h-5.33v2.67c0,1.36,1.03,2.49,2.35,2.65v3.22h-1.46c-.18,0-.32.14-.32.32s.14.32.32.32h3.57c.18,0,.32-.14.32-.32s-.14-.32-.32-.32h-1.46v-3.22c1.32-.16,2.35-1.28,2.35-2.65Z"/>
          <path class="st8" d="M345.62,340.2h.93l-1.77-1.54-1.77,1.54h.91v7.04h-2.77v-7.04h.92l-1.77-1.54-1.77,1.54h.91v7.04h-.59c-.18,0-.32.14-.32.32s.14.32.32.32h7.38c.18,0,.32-.14.32-.32s-.14-.32-.32-.32h-.61v-7.04Z"/>
        </g>
      </g>
      <polygon class="st6" points="392.99 355.92 408.69 355.92 408.69 306.16 394.98 296.23 392.99 355.92"/>
      <polygon class="st6" points="379.5 130.55 395.2 130.55 395.2 70.86 381.49 70.86 379.5 130.55"/>
      <g>
        <rect class="st4" x="339.44" y="297.06" width="55.48" height="55.48" rx=".8" ry=".8"/>
        <g>
          <path class="st8" d="M375.82,343.93c0-1.81-1.47-3.28-3.28-3.28s-3.28,1.46-3.28,3.28h3v3.67c0,.3-.24.54-.54.54s-.54-.24-.54-.54v-.12c0-.16-.13-.28-.28-.28s-.28.13-.28.28v.12c0,.61.49,1.1,1.1,1.1s1.1-.49,1.1-1.1v-3.67h3Z"/>
          <path class="st8" d="M381.85,342.99v-2.34h-4.68v2.34c0,1.2.9,2.18,2.06,2.32v2.83h-1.29c-.16,0-.28.13-.28.28s.13.28.28.28h3.13c.16,0,.28-.13.28-.28s-.13-.28-.28-.28h-1.29v-2.83c1.16-.14,2.06-1.12,2.06-2.32Z"/>
          <path class="st8" d="M390.19,342h.81l-1.55-1.35-1.55,1.35h.8v6.19h-2.43v-6.19h.81l-1.55-1.35-1.56,1.35h.8v6.19h-.51c-.16,0-.28.13-.28.28s.13.28.28.28h6.48c.15,0,.28-.13.28-.28s-.13-.28-.28-.28h-.53v-6.19Z"/>
        </g>
      </g>
      <g>
        <path class="st2" d="M192.48,306.4h75.91c.51,0,.93.42.93.93v44.37c0,.51-.42.93-.93.93h-75.91c-.51,0-.92-.41-.92-.92v-44.38c0-.51.41-.92.92-.92Z"/>
        <g>
          <path class="st8" d="M247.26,342.68c0-2.09-1.69-3.78-3.78-3.78s-3.78,1.69-3.78,3.78h3.46v4.24c0,.35-.28.62-.62.62s-.62-.28-.62-.62v-.13c0-.18-.15-.32-.32-.32s-.33.14-.33.32v.13c0,.7.57,1.27,1.27,1.27s1.27-.57,1.27-1.27v-4.24h3.46Z"/>
          <path class="st8" d="M254.23,341.6v-2.7h-5.4v2.7c0,1.38,1.04,2.52,2.38,2.68v3.26h-1.48c-.18,0-.33.14-.33.32s.15.32.33.32h3.62c.18,0,.32-.14.32-.32s-.14-.32-.32-.32h-1.49v-3.26c1.34-.16,2.38-1.3,2.38-2.68Z"/>
          <path class="st8" d="M263.85,340.46h.94l-1.79-1.56-1.79,1.56h.92v7.14h-2.81v-7.14h.94l-1.79-1.56-1.79,1.56h.92v7.14h-.59c-.18,0-.33.14-.33.32s.14.32.33.32h7.48c.18,0,.32-.14.32-.32s-.14-.32-.32-.32h-.61v-7.14Z"/>
        </g>
      </g>
      <g>
        <path class="st2" d="M69.43,283.55h67.28c.55,0,1,.45,1,1v67.29c0,.55-.45,1-1,1h-67.29c-.55,0-1-.45-1-1v-67.29c0-.55.45-1,1-1Z"/>
        <g>
          <path class="st8" d="M113.86,342.08c0-2.26-1.83-4.09-4.09-4.09s-4.09,1.83-4.09,4.09h3.74v4.59c0,.37-.3.67-.67.67s-.67-.3-.67-.67v-.14c0-.2-.16-.35-.35-.35s-.35.16-.35.35v.14c0,.76.62,1.38,1.37,1.38s1.38-.62,1.38-1.38v-4.59h3.74Z"/>
          <path class="st8" d="M121.4,340.91v-2.92h-5.85v2.92c0,1.49,1.12,2.73,2.57,2.9v3.53h-1.61c-.2,0-.35.16-.35.35s.16.35.35.35h3.91c.19,0,.35-.16.35-.35s-.16-.35-.35-.35h-1.61v-3.53c1.45-.17,2.57-1.41,2.57-2.9Z"/>
          <path class="st8" d="M131.81,339.67h1.01l-1.94-1.69-1.94,1.69h.99v7.72h-3.04v-7.72h1.01l-1.94-1.69-1.94,1.69h.99v7.72h-.64c-.19,0-.35.16-.35.35s.16.35.35.35h8.09c.2,0,.35-.16.35-.35s-.16-.35-.35-.35h-.66v-7.72Z"/>
        </g>
      </g>
      <g>
        <rect class="st2" x="334.76" y="171.1" width="70.48" height="70.47" rx="1.02" ry="1.02"/>
        <g>
          <path class="st8" d="M380.97,230.63c0-2.3-1.87-4.16-4.16-4.16s-4.16,1.86-4.16,4.16h3.81v4.67c0,.38-.31.69-.69.69s-.68-.31-.68-.69v-.15c0-.2-.16-.36-.36-.36s-.36.16-.36.36v.15c0,.77.63,1.4,1.4,1.4s1.4-.63,1.4-1.4v-4.67h3.81Z"/>
          <path class="st8" d="M388.64,229.44v-2.97h-5.95v2.97c0,1.52,1.14,2.77,2.62,2.95v3.59h-1.63c-.2,0-.36.16-.36.36s.16.36.36.36h3.98c.2,0,.36-.16.36-.36s-.16-.36-.36-.36h-1.63v-3.59c1.47-.18,2.62-1.43,2.62-2.95Z"/>
          <path class="st8" d="M399.23,228.19h1.03l-1.97-1.72-1.97,1.72h1.01v7.86h-3.09v-7.86h1.03l-1.97-1.72-1.97,1.72h1.01v7.86h-.65c-.2,0-.36.16-.36.36s.16.36.36.36h8.23c.2,0,.36-.16.36-.36s-.16-.36-.36-.36h-.67v-7.86Z"/>
        </g>
      </g>
      <g>
        <rect class="st4" x="395.87" y="192.94" width="48.63" height="48.63" rx=".7" ry=".7"/>
        <g>
          <path class="st8" d="M427.76,234.02c0-1.59-1.29-2.87-2.87-2.87s-2.88,1.29-2.88,2.87h2.63v3.22c0,.26-.21.47-.47.47s-.47-.21-.47-.47v-.1c0-.14-.11-.25-.25-.25s-.25.11-.25.25v.1c0,.53.43.96.96.96s.96-.43.96-.96v-3.22h2.63Z"/>
          <path class="st8" d="M433.05,233.2v-2.05h-4.1v2.05c0,1.05.79,1.91,1.8,2.04v2.48h-1.13c-.14,0-.25.11-.25.25s.11.25.25.25h2.75c.14,0,.25-.11.25-.25s-.11-.25-.25-.25h-1.12v-2.48c1.01-.12,1.8-.99,1.8-2.04Z"/>
          <path class="st8" d="M440.36,232.34h.71l-1.36-1.19-1.36,1.19h.7v5.42h-2.13v-5.42h.71l-1.36-1.19-1.36,1.19h.7v5.42h-.45c-.14,0-.25.11-.25.25s.11.25.25.25h5.68c.14,0,.25-.11.25-.25s-.11-.25-.25-.25h-.47v-5.42Z"/>
        </g>
      </g>
      <g>
        <rect class="st2" x="137.62" y="41.47" width="60.03" height="60.03" rx=".86" ry=".86"/>
        <g>
          <path class="st8" d="M146.93,80.83c1.96,0,3.55-1.59,3.55-3.55s-1.59-3.55-3.55-3.55v3.25h-3.98c-.32,0-.58-.26-.58-.58s.26-.58.58-.58h.13c.17,0,.31-.14.31-.31s-.14-.31-.31-.31h-.13c-.66,0-1.19.53-1.19,1.19s.54,1.19,1.19,1.19h3.98v3.25Z"/>
          <path class="st8" d="M147.95,87.36h2.53v-5.07h-2.53c-1.3,0-2.36.97-2.51,2.23h-3.06v-1.39c0-.17-.14-.31-.31-.31s-.31.14-.31.31v3.39c0,.17.14.31.31.31s.31-.14.31-.31v-1.39h3.06c.15,1.26,1.22,2.23,2.51,2.23Z"/>
          <path class="st8" d="M149.02,96.39v.88l1.46-1.68-1.46-1.68v.86h-6.69v-2.63h6.69v.88l1.46-1.68-1.46-1.68v.86h-6.69v-.55c0-.17-.14-.31-.31-.31s-.31.14-.31.31v7.01c0,.17.14.31.31.31s.31-.14.31-.31v-.57h6.69Z"/>
        </g>
      </g>
      <g>
        <rect class="st4" x="57.01" y="31.03" width="70.48" height="70.47" rx="1.02" ry="1.02"/>
        <g>
          <path class="st8" d="M103.22,90.56c0-2.3-1.87-4.16-4.16-4.16s-4.16,1.86-4.16,4.16h3.81v4.67c0,.38-.31.69-.69.69s-.68-.31-.68-.69v-.15c0-.2-.16-.36-.36-.36s-.36.16-.36.36v.15c0,.77.63,1.4,1.4,1.4s1.4-.63,1.4-1.4v-4.67h3.81Z"/>
          <path class="st8" d="M110.89,89.37v-2.97h-5.95v2.97c0,1.52,1.14,2.77,2.62,2.95v3.59h-1.63c-.2,0-.36.16-.36.36s.16.36.36.36h3.98c.2,0,.36-.16.36-.36s-.16-.36-.36-.36h-1.63v-3.59c1.47-.18,2.62-1.43,2.62-2.95Z"/>
          <path class="st8" d="M121.48,88.11h1.03l-1.97-1.72-1.97,1.72h1.01v7.86h-3.09v-7.86h1.03l-1.97-1.72-1.97,1.72h1.01v7.86h-.65c-.2,0-.36.16-.36.36s.16.36.36.36h8.23c.2,0,.36-.16.36-.36s-.16-.36-.36-.36h-.67v-7.86Z"/>
        </g>
      </g>
      <g>
        <path class="st4" d="M79.45,157.04h58.75c.48,0,.88.39.88.88v58.75c0,.48-.39.88-.88.88h-58.75c-.48,0-.88-.39-.88-.88v-58.75c0-.48.39-.87.87-.87Z"/>
        <g>
          <path class="st8" d="M118.25,208.14c0-1.97-1.6-3.57-3.57-3.57s-3.57,1.6-3.57,3.57h3.27v4.01c0,.33-.27.59-.59.59s-.59-.26-.59-.59v-.13c0-.17-.14-.31-.31-.31s-.31.14-.31.31v.13c0,.66.54,1.2,1.2,1.2s1.2-.54,1.2-1.2v-4.01h3.27Z"/>
          <path class="st8" d="M124.83,207.12v-2.55h-5.11v2.55c0,1.31.98,2.38,2.25,2.54v3.08h-1.4c-.17,0-.31.14-.31.31s.14.31.31.31h3.42c.17,0,.31-.14.31-.31s-.14-.31-.31-.31h-1.4v-3.08c1.26-.15,2.25-1.23,2.25-2.54Z"/>
          <path class="st8" d="M133.92,206.04h.89l-1.69-1.48-1.69,1.48h.87v6.74h-2.66v-6.74h.89l-1.69-1.48-1.69,1.48h.87v6.74h-.56c-.17,0-.31.14-.31.31s.14.31.31.31h7.06c.17,0,.31-.14.31-.31s-.14-.31-.31-.31h-.58v-6.74Z"/>
        </g>
      </g>
      <g>
        <rect class="st4" x="223.8" y="171.1" width="70.48" height="70.48" rx="1.02" ry="1.02"/>
        <g>
          <path class="st8" d="M248.07,182.04c0,2.3,1.87,4.16,4.16,4.16s4.16-1.86,4.16-4.16h-3.81v-4.67c0-.38.31-.68.69-.68s.68.31.68.68v.15c0,.2.16.36.36.36s.36-.16.36-.36v-.15c0-.77-.63-1.4-1.4-1.4s-1.4.63-1.4,1.4v4.67h-3.81Z"/>
          <path class="st8" d="M240.4,183.23v2.97h5.95v-2.97c0-1.52-1.14-2.77-2.62-2.95v-3.59h1.63c.2,0,.36-.16.36-.36s-.16-.36-.36-.36h-3.98c-.2,0-.36.16-.36.36s.16.36.36.36h1.63v3.59c-1.47.18-2.62,1.43-2.62,2.95Z"/>
          <path class="st8" d="M229.81,184.48h-1.03l1.97,1.72,1.97-1.72h-1.01v-7.86h3.09v7.86h-1.03l1.97,1.72,1.97-1.72h-1.01v-7.86h.65c.2,0,.36-.16.36-.36s-.16-.36-.36-.36h-8.23c-.2,0-.36.16-.36.36s.16.36.36.36h.67v7.86Z"/>
        </g>
      </g>
      <g>
        <rect class="st2" x="234.84" y="59.52" width="70.48" height="70.48" rx="1.02" ry="1.02"/>
        <g>
          <path class="st8" d="M245.78,105.73c2.3,0,4.16-1.87,4.16-4.16s-1.86-4.16-4.16-4.16v3.81h-4.67c-.38,0-.68-.31-.68-.69s.31-.68.68-.68h.15c.2,0,.36-.16.36-.36s-.16-.36-.36-.36h-.15c-.77,0-1.4.63-1.4,1.4s.63,1.4,1.4,1.4h4.67v3.81Z"/>
          <path class="st8" d="M246.97,113.4h2.97v-5.95h-2.97c-1.52,0-2.77,1.14-2.95,2.62h-3.59v-1.63c0-.2-.16-.36-.36-.36s-.36.16-.36.36v3.98c0,.2.16.36.36.36s.36-.16.36-.36v-1.63h3.59c.18,1.47,1.43,2.62,2.95,2.62Z"/>
          <path class="st8" d="M248.22,123.99v1.03l1.72-1.97-1.72-1.97v1.01h-7.86v-3.09h7.86v1.03l1.72-1.97-1.72-1.97v1.01h-7.86v-.65c0-.2-.16-.36-.36-.36s-.36.16-.36.36v8.23c0,.2.16.36.36.36s.36-.16.36-.36v-.67h7.86Z"/>
        </g>
      </g>
      <g>
        <path class="st3" d="M96.69,405.53h58.3c.48,0,.86.39.86.86v58.3c0,.48-.39.87-.87.87h-58.3c-.48,0-.86-.39-.86-.86v-58.3c0-.48.39-.87.87-.87Z"/>
        <g>
          <path class="st8" d="M146.54,444.9c-1.96,0-3.55-1.59-3.55-3.55s1.59-3.55,3.55-3.55v3.25h3.98c.32,0,.58-.26.58-.58s-.26-.58-.58-.58h-.13c-.17,0-.31-.14-.31-.3s.14-.31.31-.31h.13c.66,0,1.19.53,1.19,1.19s-.53,1.19-1.19,1.19h-3.98v3.25Z"/>
          <path class="st8" d="M145.52,451.43h-2.53v-5.07h2.53c1.3,0,2.36.97,2.51,2.23h3.06v-1.39c0-.17.14-.31.3-.31s.31.14.31.31v3.39c0,.17-.14.31-.31.31s-.3-.14-.3-.31v-1.39h-3.06c-.15,1.26-1.22,2.23-2.51,2.23Z"/>
          <path class="st8" d="M144.46,460.45v.88l-1.46-1.68,1.46-1.68v.86h6.69v-2.63h-6.69v.88l-1.46-1.68,1.46-1.68v.86h6.69v-.55c0-.17.14-.31.3-.31s.31.14.31.31v7.01c0,.17-.14.31-.31.31s-.3-.14-.3-.31v-.57h-6.69Z"/>
        </g>
      </g>
      <g>
        <rect class="st2" x="166.49" y="395.09" width="70.48" height="70.47" rx="1.02" ry="1.02"/>
        <g>
          <path class="st8" d="M190.75,454.62c0-2.3,1.87-4.16,4.16-4.16s4.16,1.86,4.16,4.16h-3.81v4.67c0,.38.31.69.69.69s.68-.31.68-.69v-.15c0-.2.16-.36.36-.36s.36.16.36.36v.15c0,.77-.63,1.4-1.4,1.4s-1.4-.63-1.4-1.4v-4.67h-3.81Z"/>
          <path class="st8" d="M183.08,453.43v-2.97h5.95v2.97c0,1.52-1.14,2.77-2.62,2.95v3.59h1.63c.2,0,.36.16.36.36s-.16.36-.36.36h-3.98c-.2,0-.36-.16-.36-.36s.16-.36.36-.36h1.63v-3.59c-1.47-.18-2.62-1.43-2.62-2.95Z"/>
          <path class="st8" d="M172.49,452.18h-1.03l1.97-1.72,1.97,1.72h-1.01v7.86h3.09v-7.86h-1.03l1.97-1.72,1.97,1.72h-1.01v7.86h.65c.2,0,.36.16.36.36s-.16.36-.36.36h-8.23c-.2,0-.36-.16-.36-.36s.16-.36.36-.36h.67v-7.86Z"/>
        </g>
      </g>
      <g>
        <g>
          <g>
            <rect class="st13" x="64.93" y="219.57" width="13.93" height="13.93" rx="1.03" ry="1.03"/>
            <path class="st11" d="M77.83,220.6v11.87h-11.87v-11.87h11.87M77.83,218.54h-11.87c-1.14,0-2.06.92-2.06,2.06v11.87c0,1.14.92,2.06,2.06,2.06h11.87c1.14,0,2.06-.92,2.06-2.06v-11.87c0-1.14-.92-2.06-2.06-2.06h0Z"/>
          </g>
          <g>
            <rect class="st13" x="124.03" y="219.57" width="13.93" height="13.93" rx="1.03" ry="1.03"/>
            <path class="st11" d="M136.93,220.6v11.87h-11.87v-11.87h11.87M136.93,218.54h-11.87c-1.14,0-2.06.92-2.06,2.06v11.87c0,1.14.92,2.06,2.06,2.06h11.87c1.14,0,2.06-.92,2.06-2.06v-11.87c0-1.14-.92-2.06-2.06-2.06h0Z"/>
          </g>
          <g class="st7">
            <rect class="st12" x="125.06" y="222.71" width="11.87" height="3.31"/>
          </g>
          <g>
            <rect class="st13" x="183.14" y="219.57" width="13.93" height="13.93" rx="1.03" ry="1.03"/>
            <path class="st11" d="M196.03,220.6v11.87h-11.87v-11.87h11.87M196.03,218.54h-11.87c-1.14,0-2.06.92-2.06,2.06v11.87c0,1.14.92,2.06,2.06,2.06h11.87c1.14,0,2.06-.92,2.06-2.06v-11.87c0-1.14-.92-2.06-2.06-2.06h0Z"/>
          </g>
          <g class="st7">
            <rect class="st12" x="184.16" y="222.71" width="11.87" height="3.31"/>
          </g>
          <g class="st7">
            <rect class="st12" x="65.96" y="222.71" width="11.87" height="3.31"/>
          </g>
        </g>
        <g>
          <rect class="st13" x="50.14" y="214.25" width="161.72" height="7.38" rx="1.03" ry="1.03"/>
          <path class="st11" d="M210.83,215.28v5.32H51.16v-5.32h159.66M210.83,213.22H51.16c-1.14,0-2.06.92-2.06,2.06v5.32c0,1.14.92,2.06,2.06,2.06h159.66c1.14,0,2.06-.92,2.06-2.06v-5.32c0-1.14-.92-2.06-2.06-2.06h0Z"/>
        </g>
        <g>
          <rect class="st13" x="50.14" y="234.25" width="161.72" height="7.38" rx="1.03" ry="1.03"/>
          <path class="st11" d="M210.83,235.27v5.32H51.16v-5.32h159.66M210.83,233.22H51.16c-1.14,0-2.06.92-2.06,2.06v5.32c0,1.14.92,2.06,2.06,2.06h159.66c1.14,0,2.06-.92,2.06-2.06v-5.32c0-1.14-.92-2.06-2.06-2.06h0Z"/>
        </g>
      </g>
      <g>
        <rect class="st4" x="304.84" y="377.53" width="60.5" height="60.5" rx=".87" ry=".87"/>
        <g>
          <path class="st8" d="M344.51,428.64c0-1.97-1.6-3.57-3.57-3.57s-3.57,1.6-3.57,3.57h3.27v4.01c0,.32-.27.59-.59.59s-.59-.26-.59-.59v-.13c0-.17-.14-.31-.31-.31s-.31.14-.31.31v.13c0,.66.54,1.2,1.2,1.2s1.2-.54,1.2-1.2v-4.01h3.27Z"/>
          <path class="st8" d="M351.09,427.62v-2.55h-5.1v2.55c0,1.3.98,2.38,2.24,2.53v3.08h-1.4c-.17,0-.31.14-.31.31s.14.31.31.31h3.42c.17,0,.31-.14.31-.31s-.14-.31-.31-.31h-1.4v-3.08c1.26-.15,2.24-1.23,2.24-2.53Z"/>
          <path class="st8" d="M360.18,426.54h.89l-1.69-1.48-1.69,1.48h.87v6.74h-2.65v-6.74h.88l-1.69-1.48-1.69,1.48h.87v6.74h-.56c-.17,0-.31.14-.31.31s.14.31.31.31h7.06c.17,0,.31-.14.31-.31s-.14-.31-.31-.31h-.58v-6.74Z"/>
        </g>
      </g>
      <g>
        <g>
          <g>
            <rect class="st13" x="292.39" y="443.36" width="13.93" height="13.93" rx="1.03" ry="1.03"/>
            <path class="st11" d="M305.29,444.38v11.87h-11.87v-11.87h11.87M305.29,442.33h-11.87c-1.14,0-2.06.92-2.06,2.06v11.87c0,1.14.92,2.06,2.06,2.06h11.87c1.14,0,2.06-.92,2.06-2.06v-11.87c0-1.14-.92-2.06-2.06-2.06h0Z"/>
          </g>
          <g>
            <rect class="st13" x="351.49" y="443.36" width="13.93" height="13.93" rx="1.03" ry="1.03"/>
            <path class="st11" d="M364.39,444.38v11.87h-11.87v-11.87h11.87M364.39,442.33h-11.87c-1.14,0-2.06.92-2.06,2.06v11.87c0,1.14.92,2.06,2.06,2.06h11.87c1.14,0,2.06-.92,2.06-2.06v-11.87c0-1.14-.92-2.06-2.06-2.06h0Z"/>
          </g>
          <g class="st7">
            <rect class="st12" x="352.52" y="446.5" width="11.87" height="3.31"/>
          </g>
          <g>
            <rect class="st13" x="410.6" y="443.36" width="13.93" height="13.93" rx="1.03" ry="1.03"/>
            <path class="st11" d="M423.49,444.38v11.87h-11.87v-11.87h11.87M423.49,442.33h-11.87c-1.14,0-2.06.92-2.06,2.06v11.87c0,1.14.92,2.06,2.06,2.06h11.87c1.14,0,2.06-.92,2.06-2.06v-11.87c0-1.14-.92-2.06-2.06-2.06h0Z"/>
          </g>
          <g class="st7">
            <rect class="st12" x="411.63" y="446.5" width="11.87" height="3.31"/>
          </g>
          <g class="st7">
            <rect class="st12" x="293.41" y="446.5" width="11.87" height="3.31"/>
          </g>
        </g>
        <g>
          <rect class="st13" x="277.6" y="438.04" width="161.72" height="7.38" rx="1.03" ry="1.03"/>
          <path class="st11" d="M438.29,439.06v5.32h-159.66v-5.32h159.66M438.29,437.01h-159.66c-1.14,0-2.06.92-2.06,2.06v5.32c0,1.14.92,2.06,2.06,2.06h159.66c1.14,0,2.06-.92,2.06-2.06v-5.32c0-1.14-.92-2.06-2.06-2.06h0Z"/>
        </g>
        <g>
          <rect class="st13" x="277.6" y="458.03" width="161.72" height="7.38" rx="1.03" ry="1.03"/>
          <path class="st11" d="M438.29,459.06v5.32h-159.66v-5.32h159.66M438.29,457.01h-159.66c-1.14,0-2.06.92-2.06,2.06v5.32c0,1.14.92,2.06,2.06,2.06h159.66c1.14,0,2.06-.92,2.06-2.06v-5.32c0-1.14-.92-2.06-2.06-2.06h0Z"/>
        </g>
      </g>
      <g>
        <g>
          <g>
            <rect class="st13" x="66.63" y="107.97" width="13.93" height="13.93" rx="1.03" ry="1.03"/>
            <path class="st11" d="M79.53,109v11.87h-11.87v-11.87h11.87M79.53,106.94h-11.87c-1.14,0-2.06.92-2.06,2.06v11.87c0,1.14.92,2.06,2.06,2.06h11.87c1.14,0,2.06-.92,2.06-2.06v-11.87c0-1.14-.92-2.06-2.06-2.06h0Z"/>
          </g>
          <g>
            <rect class="st13" x="125.74" y="107.97" width="13.93" height="13.93" rx="1.03" ry="1.03"/>
            <path class="st11" d="M138.63,109v11.87h-11.87v-11.87h11.87M138.63,106.94h-11.87c-1.14,0-2.06.92-2.06,2.06v11.87c0,1.14.92,2.06,2.06,2.06h11.87c1.14,0,2.06-.92,2.06-2.06v-11.87c0-1.14-.92-2.06-2.06-2.06h0Z"/>
          </g>
          <g class="st7">
            <rect class="st12" x="126.77" y="111.12" width="11.87" height="3.31"/>
          </g>
          <g>
            <rect class="st13" x="184.84" y="107.97" width="13.93" height="13.93" rx="1.03" ry="1.03"/>
            <path class="st11" d="M197.74,109v11.87h-11.87v-11.87h11.87M197.74,106.94h-11.87c-1.14,0-2.06.92-2.06,2.06v11.87c0,1.14.92,2.06,2.06,2.06h11.87c1.14,0,2.06-.92,2.06-2.06v-11.87c0-1.14-.92-2.06-2.06-2.06h0Z"/>
          </g>
          <g class="st7">
            <rect class="st12" x="185.87" y="111.12" width="11.87" height="3.31"/>
          </g>
          <g class="st7">
            <rect class="st12" x="67.66" y="111.12" width="11.87" height="3.31"/>
          </g>
        </g>
        <g>
          <rect class="st13" x="51.84" y="102.65" width="161.72" height="7.37" rx="1.03" ry="1.03"/>
          <path class="st11" d="M212.53,103.68v5.32H52.87v-5.32h159.66M212.53,101.63H52.87c-1.14,0-2.06.92-2.06,2.06v5.32c0,1.14.92,2.06,2.06,2.06h159.66c1.14,0,2.06-.92,2.06-2.06v-5.32c0-1.14-.92-2.06-2.06-2.06h0Z"/>
        </g>
        <g>
          <rect class="st13" x="51.84" y="122.65" width="161.72" height="7.38" rx="1.03" ry="1.03"/>
          <path class="st11" d="M212.53,123.68v5.32H52.87v-5.32h159.66M212.53,121.62H52.87c-1.14,0-2.06.92-2.06,2.06v5.32c0,1.14.92,2.06,2.06,2.06h159.66c1.14,0,2.06-.92,2.06-2.06v-5.32c0-1.14-.92-2.06-2.06-2.06h0Z"/>
        </g>
      </g>
      <g>
        <g>
          <g>
            <rect class="st9" x="17.09" y="353.17" width="470.67" height="10.36" rx="1.03" ry="1.03"/>
            <path class="st11" d="M486.73,354.2v8.3H18.11v-8.3h468.61M486.73,352.15H18.11c-1.14,0-2.06.92-2.06,2.06v8.3c0,1.14.92,2.06,2.06,2.06h468.61c1.14,0,2.06-.92,2.06-2.06v-8.3c0-1.14-.92-2.06-2.06-2.06h0Z"/>
          </g>
          <g>
            <rect class="st9" x="17.09" y="241.6" width="470.67" height="10.35" rx="1.03" ry="1.03"/>
            <path class="st11" d="M486.73,242.63v8.3H18.11v-8.3h468.61M486.73,240.57H18.11c-1.14,0-2.06.92-2.06,2.06v8.3c0,1.14.92,2.06,2.06,2.06h468.61c1.14,0,2.06-.92,2.06-2.06v-8.3c0-1.14-.92-2.06-2.06-2.06h0Z"/>
          </g>
          <g>
            <rect class="st9" x="17.09" y="130.03" width="470.67" height="10.36" rx="1.03" ry="1.03"/>
            <path class="st11" d="M486.73,131.05v8.3H18.11v-8.3h468.61M486.73,129H18.11c-1.14,0-2.06.92-2.06,2.06v8.3c0,1.14.92,2.06,2.06,2.06h468.61c1.14,0,2.06-.92,2.06-2.06v-8.3c0-1.14-.92-2.06-2.06-2.06h0Z"/>
          </g>
        </g>
        <g>
          <g>
            <path class="st11" d="M478.76,96.64v367.87h-15.03V96.64h15.03M478.76,92.52h-15.03c-2.27,0-4.11,1.84-4.11,4.11v367.87c0,2.27,1.84,4.11,4.11,4.11h15.03c2.27,0,4.11-1.84,4.11-4.11V96.64c0-2.27-1.84-4.11-4.11-4.11h0Z"/>
            <path class="st0" d="M463.73,96.64v367.87h15.03V96.64h-15.03Z"/>
          </g>
          <g>
            <path class="st11" d="M41.11,96.64v367.87h-15.02V96.64h15.02M41.11,92.52h-15.02c-2.27,0-4.11,1.84-4.11,4.11v367.87c0,2.27,1.84,4.11,4.11,4.11h15.02c2.27,0,4.11-1.84,4.11-4.11V96.64c0-2.27-1.84-4.11-4.11-4.11h0Z"/>
            <path class="st0" d="M26.08,96.64v367.87h15.02V96.64h-15.02Z"/>
          </g>
        </g>
        <g class="st5">
          <rect class="st12" x="45.25" y="131.08" width="11.87" height="8.24"/>
        </g>
        <g class="st5">
          <rect class="st12" x="45.23" y="242.66" width="11.87" height="8.24"/>
        </g>
        <g class="st5">
          <rect class="st12" x="45.23" y="354.22" width="11.87" height="8.24"/>
        </g>
      </g>
      <line class="st1" x1="500" y1="467.07" y2="467.07"/>
      <g>
        <rect class="st3" x="298.28" y="47.68" width="82.31" height="82.31" rx="1.19" ry="1.19"/>
        <g>
          <path class="st8" d="M367.82,76.02c-2.69,0-4.86,2.18-4.86,4.86s2.17,4.86,4.86,4.86v-4.45h5.45c.44,0,.8.36.8.8s-.36.8-.8.8h-.17c-.23,0-.42.19-.42.41s.19.42.42.42h.17c.9,0,1.63-.73,1.63-1.63s-.73-1.63-1.63-1.63h-5.45v-4.45Z"/>
          <path class="st8" d="M366.43,67.06h-3.47v6.95h3.47c1.78,0,3.24-1.34,3.45-3.06h4.19v1.91c0,.23.19.42.42.42s.42-.19.42-.42v-4.65c0-.23-.19-.42-.42-.42s-.42.19-.42.42v1.91h-4.19c-.21-1.72-1.67-3.06-3.45-3.06Z"/>
          <path class="st8" d="M364.96,54.7v-1.2l-2.01,2.31,2.01,2.3v-1.18h9.18v3.61h-9.18v-1.2l-2.01,2.31,2.01,2.31v-1.18h9.18v.76c0,.23.19.42.42.42s.41-.19.41-.42v-9.61c0-.23-.19-.41-.41-.41s-.42.19-.42.41v.79h-9.18Z"/>
        </g>
      </g>
    </g>
  </g>
</svg>