<?xml version="1.0" encoding="UTF-8"?>
<svg id="Layer_1" xmlns="http://www.w3.org/2000/svg" version="1.1" viewBox="0 0 230 230">
  <!-- Generator: Adobe Illustrator 29.8.3, SVG Export Plug-In . SVG Version: 2.1.1 Build 3)  -->
  <defs>
    <style>
      .st0 {
        fill: #cc5b1d;
      }

      .st1 {
        fill: #fc5a00;
      }

      .st2 {
        fill: #fe7621;
      }

      .st3 {
        fill: #fc9b65;
      }

      .st4 {
        fill: #d19d00;
      }
    </style>
  </defs>
  <polygon class="st3" points="193.9 78.43 194.67 76.92 192.23 72.44 193.01 67.46 190.08 64.75 190.62 55.86 188.97 56.04 187.32 54.27 186.04 58.34 184.6 58.34 181.95 62.32 183.05 67.3 180.95 70.12 182.5 75.43 177.52 75.43 169.22 79.8 166.35 86.6 167.18 89.65 167.18 93.85 167.16 93.87 168.84 93.96 170.22 97.89 174.81 95.9 175.92 96.28 178.52 92.08 177.13 90.81 179.4 89.31 185.04 90.09 190.36 85.7 194.17 82.57 193.12 79.97 193.9 78.43"/>
  <path class="st3" d="M214.22,77.16l-4.65-1.39s1.66-3.29,1.74-3.52c.08-.23-2.79.19-2.79.19l-3.17,2.28-1.35-1.94.19,6.46-1.38,1.2,4.17.77,3.85-2.98,1.53,1.28-1.53,2.94.48,2.25,3.68-2.79,5.23-2.71,3.12.6.61-4.02-.56-1.26-8.09-.94-1.08,3.56Z"/>
  <path class="st1" d="M220.22,67.48l-8.93-.92-7.29,6.23,1.35,1.94,3.17-2.28s2.86-.43,2.79-.19c-.08.23-1.74,3.52-1.74,3.52l4.65,1.39,1.08-3.56,8.09.94-3.17-7.06Z"/>
  <polygon class="st2" points="211.29 66.56 197.35 55.12 190.62 55.86 190.08 64.75 193.01 67.46 192.23 72.44 194.67 76.92 193.9 78.43 199.2 78.98 201.52 81.57 202.81 80.46 204.19 79.25 204 72.79 211.29 66.56"/>
  <path class="st2" d="M165.36,46.93l-8.26-3.86-3.43,1.04.43-2.45-6.42-3.12-2.02.98-.49-2.32-.79-.08-1.3,2.61-3.64,1.48-2.19,5.93-2.53.04-7.01-13.97-6.11-1.26s-.11-2.34-.2-4.04l-6.07-.68,1.77,3.85-8.13-1.41-7.77,4.22-.73,5.19v3.32l5.53,6.42,7.97,3.1-11.67,23.9,1.97,2.96,7.15,10.71,32.78,2.69,4.56-10.21,1.27-4.87,4.92-6.03-1.55-3.76,5.42-3.1,6.54-17.27Z"/>
  <polygon class="st3" points="96.24 32.06 94.72 24.72 96.86 19.28 94.65 16.96 94.53 12.74 91.11 12.86 90.43 16.59 79.61 21.24 78.75 19.46 69.95 18.24 73.55 25.21 78.32 28.09 78.63 29.37 81.49 30.18 82.43 45.34 87.36 49.38 88.02 43.13 92.72 44.62 94.66 39.31 100.47 39.09 101.2 33.9 96.24 32.06"/>
  <path class="st1" d="M127.71,33.21l7.01,13.97,2.53-.04,2.19-5.93,3.64-1.48,1.3-2.61.79.08,1.47-5.14-3.24-3.49-1.16,1.16-2.32-6.42-1.71-6.73-.49,3.79-4.28,4.16-1.22,5.44-5.38-1.96-4.95-.06-.47-.05c.09,1.71.2,4.04.2,4.04l6.11,1.26Z"/>
  <polygon class="st1" points="153.4 67.3 159.21 69.46 158.44 78.2 161.15 83.12 163.47 81.85 163.75 83.89 160.82 88.21 164.63 93.74 167.16 93.87 167.18 93.85 167.18 89.65 166.35 86.6 169.22 79.8 177.52 75.43 182.5 75.43 180.95 70.12 183.05 67.3 181.95 62.32 184.6 58.34 186.04 58.34 187.32 54.27 178.57 52.19 176.12 54.57 171.54 47.29 169.27 48.76 165.36 46.93 158.82 64.2 153.4 67.3"/>
  <polygon class="st3" points="194.06 131.19 197.38 123.11 190.24 123.17 187.7 120.12 174.15 115 166.79 119.83 161.37 118.47 161.37 124.33 158.22 131.19 159.65 134.53 156.94 137.55 154.18 136.39 143.5 138.66 142.24 142.7 141.52 145.03 140.57 145.79 145.82 144.57 149.7 145.07 149.53 147.06 159.16 145.07 161.15 152.26 164.47 152.26 162.75 157.41 164.91 161.28 172.38 157.57 181.45 156.02 185.38 154.36 185.82 150.65 187.32 149.31 187.81 146.57 189.47 147.17 192.18 142.64 191.13 136.44 196.16 135 194.06 131.19"/>
  <polygon class="st4" points="142.24 142.7 142.24 142.7 142.24 142.7 142.24 142.7"/>
  <polygon class="st0" points="220.22 79.21 214.99 81.92 211.31 84.71 210.83 82.47 212.36 79.52 210.83 78.25 206.98 81.23 202.81 80.46 201.52 81.57 199.2 78.98 193.9 78.43 193.12 79.97 194.17 82.57 190.36 85.7 193.08 90.13 199.47 85.37 205.82 89.39 208.3 87.03 211.59 89.39 214.76 89.28 218.13 86.76 221.36 86.83 222.48 85.46 223.34 79.81 220.22 79.21"/>
  <polygon class="st4" points="142.24 142.7 142.24 142.7 142.24 142.7 142.24 142.7"/>
  <polygon class="st3" points="167.16 93.87 164.63 93.74 160.82 88.21 163.75 83.89 163.47 81.85 161.15 83.12 158.44 78.2 159.21 69.46 153.4 67.3 154.95 71.06 150.03 77.09 148.76 81.96 144.2 92.17 141.9 97.33 141.41 107.6 144.99 105.69 144.5 107.84 149.14 109.78 149.97 107.84 154.62 110.28 164.49 108.07 163.47 98.99 167.16 93.87"/>
  <polygon class="st1" points="164.58 108.84 164.49 108.07 154.62 110.28 149.97 107.84 149.14 109.78 144.5 107.84 144.99 105.69 141.41 107.6 140.85 119.41 132.27 125.71 129.17 130.63 131.11 138.66 142.24 142.7 143.5 138.66 154.18 136.39 156.94 137.55 159.65 134.53 158.22 131.19 161.37 124.33 161.37 118.47 166.79 119.83 164.58 108.84"/>
  <polygon class="st0" points="191.13 136.44 192.18 142.64 189.47 147.17 187.81 146.57 187.32 149.31 188.69 151.65 192.18 151.9 192.39 149.62 198.69 142.83 199 136.41 196.16 135 191.13 136.44"/>
  <polygon class="st1" points="188.69 151.65 187.32 149.31 185.82 150.65 185.38 154.36 181.45 156.02 172.38 157.57 173.43 160.44 186.03 160.99 187.87 157.26 191.84 155.49 192.18 151.9 188.69 151.65"/>
  <polygon class="st2" points="164.91 161.28 162.75 157.41 164.47 152.26 161.15 152.26 159.16 145.07 149.53 147.06 149.7 145.07 145.82 144.57 140.57 145.79 138.14 147.51 134.26 156.13 130.94 157.57 130.05 158.79 139.3 158.79 142.06 160.5 147.37 160.5 149.36 169.47 153.62 170.13 153.57 171.68 156.82 172.77 160.65 168.82 169.09 164.97 173.43 160.44 172.38 157.57 164.91 161.28"/>
  <polygon class="st1" points="153.62 170.13 149.36 169.47 147.37 160.5 142.06 160.5 139.3 158.79 130.05 158.79 124.26 166.62 122.18 174.27 125.91 174.27 127.56 178.3 139.63 180.31 138.47 179.15 142.67 176.77 148.09 178.37 149.31 176.77 152.7 177.02 156.82 172.77 153.57 171.68 153.62 170.13"/>
  <polygon class="st1" points="218.13 86.76 214.76 89.28 211.59 89.39 208.3 87.03 205.82 89.39 215.08 94.98 217.28 94.02 217.16 91.94 221.36 86.83 218.13 86.76"/>
  <polygon class="st2" points="209.74 101.43 207.17 100.74 205.82 96.79 207.91 95.94 205.82 89.39 199.47 85.37 193.08 90.13 190.36 85.7 185.04 90.09 179.4 89.31 177.13 90.81 178.52 92.08 175.92 96.28 174.81 95.9 170.22 97.89 168.84 93.96 167.16 93.87 163.47 98.99 164.49 108.07 164.58 108.84 166.79 119.83 174.15 115 187.7 120.12 190.24 123.17 197.38 123.11 194.06 131.19 196.16 135 199 136.41 201.75 132.55 202.48 122.46 201.69 109.68 207.19 106.8 209.74 101.43"/>
  <polygon class="st3" points="207.91 95.94 205.82 96.79 207.17 100.74 209.74 101.43 212.21 96.22 215.08 94.98 205.82 89.39 207.91 95.94"/>
  <polygon class="st3" points="131.11 138.66 127.4 131.69 120.77 133.12 115.35 130.41 110.04 133.51 106.94 133.89 107.38 135.55 105.66 145.34 103.22 146.07 105.72 149.25 105.42 156.16 112.09 157.08 116.18 155.92 118.32 165.95 122.3 164.79 124.26 166.62 130.05 158.79 130.94 157.57 134.26 156.13 138.14 147.51 140.57 145.79 141.52 145.03 142.24 142.7 131.11 138.66"/>
  <polygon class="st2" points="94.6 102.87 94.93 97.83 87.52 98.33 86.58 85.66 84.7 87.1 80.39 82.34 76.57 82.51 73.97 87.1 70.15 87.1 70.15 89.31 67.22 89.04 66.23 90.09 62.24 89.37 60.33 91.73 62.87 93.04 65.05 91.94 67.19 91.82 67.68 95.24 66.83 96.16 68.23 98 67.07 99.89 71.35 104.54 79.06 106.62 91.6 112.06 97.31 105.13 94.6 102.87"/>
  <polygon class="st3" points="60.33 91.73 44.71 83.62 25.79 77.94 23.95 79.46 28.91 87.48 27.8 90.05 33.37 92.61 41.38 90.35 41.5 98.43 52.15 98.43 53.74 95.92 55.33 96.83 62.87 93.04 60.33 91.73"/>
  <path class="st0" d="M111.42,89.48l-7.15-10.71c-.42,2.79-1.14,7.5-1.14,7.5l-16.54-.61.94,12.67,7.41-.5-.33,5.03,2.71,2.27-5.72,6.93,2.57,13.94,9.17-.31-.49,4.89,3.67,1.71.42,1.58,3.1-.38,5.31-3.1,5.42,2.71,6.64-1.44,3.71,6.97-1.94-8.02,3.1-4.92,8.57-6.31.56-11.8.49-10.27,2.3-5.16-32.78-2.69Z"/>
  <polygon class="st3" points="148.09 178.37 142.67 176.77 138.47 179.15 139.63 180.31 127.56 178.3 126.46 182.39 135.37 183.24 142.12 189.1 147.15 189.82 145.77 193.53 147.19 194.02 151.9 190.84 153.37 184.54 152.7 177.02 149.31 176.77 148.09 178.37"/>
  <polygon class="st0" points="147.15 189.82 142.12 189.1 135.37 183.24 126.46 182.39 115.76 188.64 107.25 199.22 111.35 198.43 115.45 203.93 117.41 202.34 126.7 207.97 130.01 212.25 127.44 214.08 127.62 217.26 132.27 214.76 135.14 208.15 143.28 202.16 147.19 194.02 145.77 193.53 147.15 189.82"/>
  <path class="st1" d="M60.33,91.73l1.91-2.36,3.98.72,1-1.05,2.93.28v-2.21h3.82l2.6-4.59,3.82-.17,4.31,4.76,1.88-1.44,16.54.61s.72-4.71,1.14-7.5l-1.97-2.96,11.67-23.9-7.97-3.1-5.53-6.42v-3.32l-5.81.22-1.94,5.31-4.7-1.49-.66,6.25-4.92-4.04-.94-15.16-2.86-.81-11.93,7.28-.67-2.14-6.48,1.71-.55-4.95-1.53-2.69-4.16,2.02-.12,1.41-8.38-.73.73,3.18,3.43.8.55,2.2h-5.38v3.61l3.12,1.9-.98,1.83,1.65,1.83-3.3,16.51-4.59-.98-2.02,2.45-4.89-.12-3.85,3.55-.73,6.73-4.16,1.41,1.41,1.77,18.92,5.68,15.62,8.11Z"/>
</svg>