<?xml version="1.0" encoding="UTF-8"?>
<svg id="LOGO_x5F_GRUPO_x5F_AB" xmlns="http://www.w3.org/2000/svg" version="1.1" viewBox="0 0 1525.23 503.96">
  <!-- Generator: Adobe Illustrator 29.8.3, SVG Export Plug-In . SVG Version: 2.1.1 Build 3)  -->
  <defs>
    <style>
      .st0 {
        fill: #fff;
      }

      .st1 {
        fill: none;
      }

      .st2 {
        fill: #ededed;
      }
    </style>
  </defs>
  <path class="st1" d="M326.28,260.6c0,7.72-2.79,14.45-8.29,20.01-5.5,5.55-12.36,8.37-20.08,8.37s-14.46-2.82-20.01-8.37c-5.55-5.56-8.37-12.29-8.37-20.01v-65.29h-13.79v65.29c0,11.57,4.16,21.6,12.36,29.8,8.2,8.2,18.34,12.36,29.8,12.36s21.44-4.19,29.64-12.45c8.2-8.26,12.36-18.26,12.36-29.72v-65.28h-13.62v65.29Z"/>
  <path class="st1" d="M116.84,196.42c15.3,0,29.26,6.31,39.4,16.45l9.75-9.75c-12.82-12.82-30.03-20.47-49.16-20.47-38.25,0-69.24,31.18-69.24,69.43s30.99,69.24,69.24,69.24c18.37,0,34.62-7.07,47.44-18.55v-56.43h-61.78v13.58h48.01v36.34c-9.37,7.46-21.23,11.48-33.66,11.48-30.6,0-55.66-25.06-55.66-55.66s25.06-55.66,55.66-55.66Z"/>
  <path class="st1" d="M449.59,211.05c-10.45-10.45-23.23-15.75-37.98-15.75s-27.53,5.3-37.98,15.75-15.75,23.23-15.75,37.98v72.28h13.79v-36.43c4.59,5.15,10.14,9.34,16.52,12.48,7.26,3.58,15.14,5.39,23.42,5.39,14.75,0,27.53-5.3,37.98-15.75s15.75-23.23,15.75-37.98-5.3-27.53-15.75-37.98h0ZM439.88,277.3c-7.75,7.75-17.26,11.68-28.26,11.68s-20.52-3.93-28.26-11.68c-7.75-7.75-11.68-17.26-11.68-28.27s3.93-20.52,11.68-28.26c7.75-7.75,17.26-11.68,28.26-11.68s20.51,3.93,28.26,11.68,11.68,17.26,11.68,28.26-3.93,20.52-11.68,28.27Z"/>
  <path class="st1" d="M231.92,195.3c-13.21,0-24.63,4.71-33.93,14.01s-14.01,20.66-14.01,33.77v59.68h13.79v-59.68c0-9.36,3.37-17.45,10.02-24.05,6.65-6.59,14.77-9.94,24.14-9.94h5.82v-13.79h-5.83Z"/>
  <path class="st1" d="M537.06,195.3c-14.75,0-27.53,5.3-37.98,15.75s-15.75,23.23-15.75,37.98,5.3,27.54,15.75,37.98c10.45,10.45,23.23,15.75,37.98,15.75s27.53-5.3,37.98-15.75c10.45-10.45,15.75-23.23,15.75-37.98s-5.3-27.53-15.75-37.98-23.23-15.75-37.98-15.75ZM565.33,277.29c-7.75,7.75-17.26,11.68-28.27,11.68s-20.52-3.93-28.26-11.68c-7.75-7.75-11.68-17.26-11.68-28.27s3.93-20.52,11.68-28.26c7.75-7.75,17.26-11.68,28.26-11.68s20.52,3.93,28.27,11.68,11.68,17.26,11.68,28.26-3.93,20.52-11.68,28.27Z"/>
  <path class="st2" d="M537.06,209.08c-11,0-20.51,3.93-28.26,11.68-7.75,7.74-11.68,17.25-11.68,28.26s3.93,20.52,11.68,28.27c7.74,7.75,17.25,11.68,28.26,11.68s20.52-3.93,28.27-11.68,11.68-17.27,11.68-28.27-3.93-20.51-11.68-28.26-17.27-11.68-28.27-11.68Z"/>
  <path class="st2" d="M411.62,209.09c-11,0-20.51,3.93-28.26,11.68-7.75,7.74-11.68,17.25-11.68,28.26s3.93,20.52,11.68,28.27c7.74,7.75,17.26,11.68,28.26,11.68s20.51-3.93,28.26-11.68,11.68-17.27,11.68-28.27-3.93-20.51-11.68-28.26-17.26-11.68-28.26-11.68Z"/>
  <path class="st2" d="M623.34,251.98h0s0,0,0,0c0-37.94,10.17-73.49,27.92-104.1H88.59C39.67,147.87,0,187.53,0,236.46v30.69c0,48.93,39.67,88.59,88.59,88.59h562.46c-17.63-30.54-27.71-65.98-27.71-103.77,0,0,0,0,0,0ZM116.84,307.74c12.43,0,24.29-4.02,33.66-11.48v-36.34h-48.01v-13.58h61.78v56.43c-12.82,11.48-29.07,18.55-47.44,18.55-38.25,0-69.24-30.99-69.24-69.24s30.99-69.43,69.24-69.43c19.13,0,36.34,7.65,49.16,20.47l-9.75,9.75c-10.14-10.14-24.1-16.45-39.4-16.45-30.6,0-55.66,25.06-55.66,55.66s25.06,55.66,55.66,55.66ZM237.75,209.09h-5.82c-9.37,0-17.49,3.35-24.14,9.94-6.65,6.6-10.02,14.69-10.02,24.05v59.68h-13.79v-59.68c0-13.11,4.71-24.47,14.01-33.77s20.72-14.01,33.93-14.01h5.83v13.79ZM339.9,195.31v65.28c0,11.46-4.16,21.46-12.36,29.72-8.2,8.26-18.18,12.45-29.64,12.45s-21.6-4.16-29.8-12.36c-8.2-8.2-12.36-18.23-12.36-29.8v-65.29h13.79v65.29c0,7.72,2.82,14.45,8.37,20.01,5.55,5.55,12.29,8.37,20.01,8.37s14.58-2.82,20.08-8.37c5.5-5.56,8.29-12.29,8.29-20.01v-65.29h13.62s0,0,0,0ZM449.59,287c-10.45,10.45-23.23,15.75-37.98,15.75-8.28,0-16.16-1.81-23.42-5.39-6.38-3.14-11.93-7.33-16.52-12.48v36.43h-13.79v-72.28c0-14.75,5.3-27.53,15.75-37.98s23.23-15.75,37.98-15.75,27.53,5.3,37.98,15.75h0c10.45,10.44,15.75,23.22,15.75,37.97s-5.3,27.53-15.75,37.98ZM575.04,287.01c-10.45,10.45-23.23,15.75-37.98,15.75s-27.53-5.3-37.98-15.75c-10.45-10.44-15.75-23.23-15.75-37.98s5.3-27.53,15.75-37.98,23.23-15.75,37.98-15.75,27.53,5.3,37.98,15.75,15.75,23.23,15.75,37.98-5.3,27.53-15.75,37.98Z"/>
  <polygon class="st2" points="623.34 251.98 623.34 251.97 623.34 251.97 623.34 251.98"/>
  <path class="st0" d="M1273.25,0c-139.16,0-251.98,112.82-251.98,251.98s112.82,251.98,251.98,251.98,251.98-112.82,251.98-251.98S1412.41,0,1273.25,0ZM1339.12,337.27c-12.57,12.49-27.93,18.82-45.67,18.82h-90.98v-208.22h89.96c13.87,0,25.91,4.97,35.79,14.79s14.89,21.78,14.89,35.57c0,15.28-5.92,28.14-17.59,38.26,9.43,5.41,17.18,12.93,23.06,22.36h0c6.29,10.11,9.48,21.22,9.48,33.03,0,17.63-6.38,32.9-18.95,45.39Z"/>
  <path class="st0" d="M1313.38,219.19h0c5.76-5.79,8.68-13.01,8.68-20.94s-2.92-14.9-8.68-20.7c-5.76-5.8-12.81-8.74-20.96-8.74h-68.92v59.12h68.92c8.16,0,15.21-2.94,20.96-8.74Z"/>
  <path class="st0" d="M1293.43,248.85h-69.93v86.32h69.93c12.02,0,22.4-4.3,30.85-12.77,8.45-8.48,12.73-18.75,12.73-30.52s-4.33-21.99-12.85-30.38c-8.53-8.39-18.87-12.65-30.73-12.65Z"/>
  <path class="st0" d="M1006.76,251.98c0-37.14,8.04-72.39,22.46-104.14-35.97-62.04-103.1-103.76-179.97-103.76-114.82,0-207.9,93.08-207.9,207.9s93.08,207.9,207.9,207.9c76.87,0,144-41.73,179.97-103.76-14.42-31.74-22.46-67-22.46-104.14h0ZM910.24,335.81h-16.95v-61.93h-96.31v61.93h-16.72v-102.9c0-35.79,28.96-64.76,64.99-64.76s64.99,28.96,64.99,64.76v102.9Z"/>
  <path class="st0" d="M845.25,185.1c-26.61,0-48.27,21.66-48.27,47.8v24.02h96.31v-17.19c0-29.2-18.13-54.63-48.04-54.63Z"/>
</svg>