<?xml version="1.0" encoding="UTF-8"?>
<svg id="Layer_1" xmlns="http://www.w3.org/2000/svg" version="1.1" viewBox="0 0 100 27.67">
  <!-- Generator: Adobe Illustrator 30.0.0, SVG Export Plug-In . SVG Version: 2.1.1 Build 123)  -->
  <defs>
    <style>
      .st0 {
        fill: #010101;
      }

      .st1 {
        fill: #010000;
      }
    </style>
  </defs>
  <path d="M24.24,3.52c-.11.02-.16.06-.2.17l-5.58,16.32-4.73-15.04c-.03-.09-.09-.11-.17-.12-.24-.04-1.21-.03-1.48,0-.34.04-.38.48-.48.78-1.62,4.73-2.87,9.6-4.42,14.36l-.15.18L2.14,4.85H0l6.27,19.15,1.58-.05,4.93-15.49,4.61,14.57-.77,2.29h2.21l6.15-18.19,6.08,18.19h2.21L25.81,3.53c-.07-.04-1.42-.04-1.57-.01Z"/>
  <path class="st1" d="M59.86,4.55c-5.12-.03-10.24.04-15.37,0-1.46,0-2.46-.18-3.9.36-2.91,1.09-4.06,4.65-1.88,7.04,2.42,2.65,8.34,2.53,7.28,7.49-.79,3.67-5.52,3.47-8.38,2.86v.81c2.4.32,5.18.65,7.3-.76,1.62-1.07,2.15-2.76,1.98-4.65-.44-4.94-9.34-3.99-8.46-9.2.3-1.77,1.89-3.01,3.64-3.21h10.28v18.04h.81V5.29h6.59c.16,0,.11-.6.11-.74Z"/>
  <path d="M93.08,6.63c-5.72.65-6.94,9.07-1.88,11.55,3.37,1.65,7.62.02,8.56-3.69,1.15-4.54-1.97-8.39-6.68-7.86ZM93.35,18.02c-5.86-.52-6.08-10.09.17-10.65,7.42-.67,7.55,11.34-.17,10.65Z"/>
  <path d="M69.15,6.83v11.67c0,.05.12.1.18.11.47.08,1.28.13,1.77.15,1.84.07,3.58-.22,5.07-1.34,2.34-1.76,2.76-5.58,1.26-8.01-1.84-2.97-5.16-2.97-8.28-2.58ZM75.04,17.18c-1.59.92-3.31.87-5.09.7V7.61s.12-.11.18-.11c2-.18,3.96-.14,5.56,1.21,2.55,2.14,2.26,6.78-.66,8.47Z"/>
  <path d="M64.5,6.94c-.06-.33-.62-.14-.88-.18v8.58c0,.35-.46,1.22-.7,1.51-1.74,2.16-5.52,1.29-5.93-1.51V6.88c-.08-.22-.68-.08-.88-.12v8.43c0,1.47,1.46,3.04,2.82,3.44,2.88.85,5.4-.91,5.58-3.88.16-2.54-.13-5.25,0-7.81Z"/>
  <rect class="st0" x="82.85" y="6.76" width=".81" height="11.85"/>
</svg>